<svg version="1.1" xmlns="http://www.w3.org/2000/svg" xmlns:xlink="http://www.w3.org/1999/xlink" width="728.18994140625" height="577"><defs/><g><text fill="#eeeeee" stroke="none" font-family="Arial" font-size="24px" font-style="normal" font-weight="normal" text-decoration="none" x="0" y="0">UNREGISTERED</text><text fill="#eeeeee" stroke="none" font-family="Arial" font-size="24px" font-style="normal" font-weight="normal" text-decoration="none" x="0" y="30">UNREGISTERED</text><text fill="#eeeeee" stroke="none" font-family="Arial" font-size="24px" font-style="normal" font-weight="normal" text-decoration="none" x="0" y="60">UNREGISTERED</text><text fill="#eeeeee" stroke="none" font-family="Arial" font-size="24px" font-style="normal" font-weight="normal" text-decoration="none" x="0" y="90">UNREGISTERED</text><text fill="#eeeeee" stroke="none" font-family="Arial" font-size="24px" font-style="normal" font-weight="normal" text-decoration="none" x="0" y="120">UNREGISTERED</text><text fill="#eeeeee" stroke="none" font-family="Arial" font-size="24px" font-style="normal" font-weight="normal" text-decoration="none" x="0" y="150">UNREGISTERED</text><text fill="#eeeeee" stroke="none" font-family="Arial" font-size="24px" font-style="normal" font-weight="normal" text-decoration="none" x="0" y="180">UNREGISTERED</text><text fill="#eeeeee" stroke="none" font-family="Arial" font-size="24px" font-style="normal" font-weight="normal" text-decoration="none" x="0" y="210">UNREGISTERED</text><text fill="#eeeeee" stroke="none" font-family="Arial" font-size="24px" font-style="normal" font-weight="normal" text-decoration="none" x="0" y="240">UNREGISTERED</text><text fill="#eeeeee" stroke="none" font-family="Arial" font-size="24px" font-style="normal" font-weight="normal" text-decoration="none" x="0" y="270">UNREGISTERED</text><text fill="#eeeeee" stroke="none" font-family="Arial" font-size="24px" font-style="normal" font-weight="normal" text-decoration="none" x="0" y="300">UNREGISTERED</text><text fill="#eeeeee" stroke="none" font-family="Arial" font-size="24px" font-style="normal" font-weight="normal" text-decoration="none" x="0" y="330">UNREGISTERED</text><text fill="#eeeeee" stroke="none" font-family="Arial" font-size="24px" font-style="normal" font-weight="normal" text-decoration="none" x="0" y="360">UNREGISTERED</text><text fill="#eeeeee" stroke="none" font-family="Arial" font-size="24px" font-style="normal" font-weight="normal" text-decoration="none" x="0" y="390">UNREGISTERED</text><text fill="#eeeeee" stroke="none" font-family="Arial" font-size="24px" font-style="normal" font-weight="normal" text-decoration="none" x="0" y="420">UNREGISTERED</text><text fill="#eeeeee" stroke="none" font-family="Arial" font-size="24px" font-style="normal" font-weight="normal" text-decoration="none" x="0" y="450">UNREGISTERED</text><text fill="#eeeeee" stroke="none" font-family="Arial" font-size="24px" font-style="normal" font-weight="normal" text-decoration="none" x="0" y="480">UNREGISTERED</text><text fill="#eeeeee" stroke="none" font-family="Arial" font-size="24px" font-style="normal" font-weight="normal" text-decoration="none" x="0" y="510">UNREGISTERED</text><text fill="#eeeeee" stroke="none" font-family="Arial" font-size="24px" font-style="normal" font-weight="normal" text-decoration="none" x="0" y="540">UNREGISTERED</text><text fill="#eeeeee" stroke="none" font-family="Arial" font-size="24px" font-style="normal" font-weight="normal" text-decoration="none" x="0" y="570">UNREGISTERED</text><text fill="#eeeeee" stroke="none" font-family="Arial" font-size="24px" font-style="normal" font-weight="normal" text-decoration="none" x="200" y="0">UNREGISTERED</text><text fill="#eeeeee" stroke="none" font-family="Arial" font-size="24px" font-style="normal" font-weight="normal" text-decoration="none" x="200" y="30">UNREGISTERED</text><text fill="#eeeeee" stroke="none" font-family="Arial" font-size="24px" font-style="normal" font-weight="normal" text-decoration="none" x="200" y="60">UNREGISTERED</text><text fill="#eeeeee" stroke="none" font-family="Arial" font-size="24px" font-style="normal" font-weight="normal" text-decoration="none" x="200" y="90">UNREGISTERED</text><text fill="#eeeeee" stroke="none" font-family="Arial" font-size="24px" font-style="normal" font-weight="normal" text-decoration="none" x="200" y="120">UNREGISTERED</text><text fill="#eeeeee" stroke="none" font-family="Arial" font-size="24px" font-style="normal" font-weight="normal" text-decoration="none" x="200" y="150">UNREGISTERED</text><text fill="#eeeeee" stroke="none" font-family="Arial" font-size="24px" font-style="normal" font-weight="normal" text-decoration="none" x="200" y="180">UNREGISTERED</text><text fill="#eeeeee" stroke="none" font-family="Arial" font-size="24px" font-style="normal" font-weight="normal" text-decoration="none" x="200" y="210">UNREGISTERED</text><text fill="#eeeeee" stroke="none" font-family="Arial" font-size="24px" font-style="normal" font-weight="normal" text-decoration="none" x="200" y="240">UNREGISTERED</text><text fill="#eeeeee" stroke="none" font-family="Arial" font-size="24px" font-style="normal" font-weight="normal" text-decoration="none" x="200" y="270">UNREGISTERED</text><text fill="#eeeeee" stroke="none" font-family="Arial" font-size="24px" font-style="normal" font-weight="normal" text-decoration="none" x="200" y="300">UNREGISTERED</text><text fill="#eeeeee" stroke="none" font-family="Arial" font-size="24px" font-style="normal" font-weight="normal" text-decoration="none" x="200" y="330">UNREGISTERED</text><text fill="#eeeeee" stroke="none" font-family="Arial" font-size="24px" font-style="normal" font-weight="normal" text-decoration="none" x="200" y="360">UNREGISTERED</text><text fill="#eeeeee" stroke="none" font-family="Arial" font-size="24px" font-style="normal" font-weight="normal" text-decoration="none" x="200" y="390">UNREGISTERED</text><text fill="#eeeeee" stroke="none" font-family="Arial" font-size="24px" font-style="normal" font-weight="normal" text-decoration="none" x="200" y="420">UNREGISTERED</text><text fill="#eeeeee" stroke="none" font-family="Arial" font-size="24px" font-style="normal" font-weight="normal" text-decoration="none" x="200" y="450">UNREGISTERED</text><text fill="#eeeeee" stroke="none" font-family="Arial" font-size="24px" font-style="normal" font-weight="normal" text-decoration="none" x="200" y="480">UNREGISTERED</text><text fill="#eeeeee" stroke="none" font-family="Arial" font-size="24px" font-style="normal" font-weight="normal" text-decoration="none" x="200" y="510">UNREGISTERED</text><text fill="#eeeeee" stroke="none" font-family="Arial" font-size="24px" font-style="normal" font-weight="normal" text-decoration="none" x="200" y="540">UNREGISTERED</text><text fill="#eeeeee" stroke="none" font-family="Arial" font-size="24px" font-style="normal" font-weight="normal" text-decoration="none" x="200" y="570">UNREGISTERED</text><text fill="#eeeeee" stroke="none" font-family="Arial" font-size="24px" font-style="normal" font-weight="normal" text-decoration="none" x="400" y="0">UNREGISTERED</text><text fill="#eeeeee" stroke="none" font-family="Arial" font-size="24px" font-style="normal" font-weight="normal" text-decoration="none" x="400" y="30">UNREGISTERED</text><text fill="#eeeeee" stroke="none" font-family="Arial" font-size="24px" font-style="normal" font-weight="normal" text-decoration="none" x="400" y="60">UNREGISTERED</text><text fill="#eeeeee" stroke="none" font-family="Arial" font-size="24px" font-style="normal" font-weight="normal" text-decoration="none" x="400" y="90">UNREGISTERED</text><text fill="#eeeeee" stroke="none" font-family="Arial" font-size="24px" font-style="normal" font-weight="normal" text-decoration="none" x="400" y="120">UNREGISTERED</text><text fill="#eeeeee" stroke="none" font-family="Arial" font-size="24px" font-style="normal" font-weight="normal" text-decoration="none" x="400" y="150">UNREGISTERED</text><text fill="#eeeeee" stroke="none" font-family="Arial" font-size="24px" font-style="normal" font-weight="normal" text-decoration="none" x="400" y="180">UNREGISTERED</text><text fill="#eeeeee" stroke="none" font-family="Arial" font-size="24px" font-style="normal" font-weight="normal" text-decoration="none" x="400" y="210">UNREGISTERED</text><text fill="#eeeeee" stroke="none" font-family="Arial" font-size="24px" font-style="normal" font-weight="normal" text-decoration="none" x="400" y="240">UNREGISTERED</text><text fill="#eeeeee" stroke="none" font-family="Arial" font-size="24px" font-style="normal" font-weight="normal" text-decoration="none" x="400" y="270">UNREGISTERED</text><text fill="#eeeeee" stroke="none" font-family="Arial" font-size="24px" font-style="normal" font-weight="normal" text-decoration="none" x="400" y="300">UNREGISTERED</text><text fill="#eeeeee" stroke="none" font-family="Arial" font-size="24px" font-style="normal" font-weight="normal" text-decoration="none" x="400" y="330">UNREGISTERED</text><text fill="#eeeeee" stroke="none" font-family="Arial" font-size="24px" font-style="normal" font-weight="normal" text-decoration="none" x="400" y="360">UNREGISTERED</text><text fill="#eeeeee" stroke="none" font-family="Arial" font-size="24px" font-style="normal" font-weight="normal" text-decoration="none" x="400" y="390">UNREGISTERED</text><text fill="#eeeeee" stroke="none" font-family="Arial" font-size="24px" font-style="normal" font-weight="normal" text-decoration="none" x="400" y="420">UNREGISTERED</text><text fill="#eeeeee" stroke="none" font-family="Arial" font-size="24px" font-style="normal" font-weight="normal" text-decoration="none" x="400" y="450">UNREGISTERED</text><text fill="#eeeeee" stroke="none" font-family="Arial" font-size="24px" font-style="normal" font-weight="normal" text-decoration="none" x="400" y="480">UNREGISTERED</text><text fill="#eeeeee" stroke="none" font-family="Arial" font-size="24px" font-style="normal" font-weight="normal" text-decoration="none" x="400" y="510">UNREGISTERED</text><text fill="#eeeeee" stroke="none" font-family="Arial" font-size="24px" font-style="normal" font-weight="normal" text-decoration="none" x="400" y="540">UNREGISTERED</text><text fill="#eeeeee" stroke="none" font-family="Arial" font-size="24px" font-style="normal" font-weight="normal" text-decoration="none" x="400" y="570">UNREGISTERED</text><text fill="#eeeeee" stroke="none" font-family="Arial" font-size="24px" font-style="normal" font-weight="normal" text-decoration="none" x="600" y="0">UNREGISTERED</text><text fill="#eeeeee" stroke="none" font-family="Arial" font-size="24px" font-style="normal" font-weight="normal" text-decoration="none" x="600" y="30">UNREGISTERED</text><text fill="#eeeeee" stroke="none" font-family="Arial" font-size="24px" font-style="normal" font-weight="normal" text-decoration="none" x="600" y="60">UNREGISTERED</text><text fill="#eeeeee" stroke="none" font-family="Arial" font-size="24px" font-style="normal" font-weight="normal" text-decoration="none" x="600" y="90">UNREGISTERED</text><text fill="#eeeeee" stroke="none" font-family="Arial" font-size="24px" font-style="normal" font-weight="normal" text-decoration="none" x="600" y="120">UNREGISTERED</text><text fill="#eeeeee" stroke="none" font-family="Arial" font-size="24px" font-style="normal" font-weight="normal" text-decoration="none" x="600" y="150">UNREGISTERED</text><text fill="#eeeeee" stroke="none" font-family="Arial" font-size="24px" font-style="normal" font-weight="normal" text-decoration="none" x="600" y="180">UNREGISTERED</text><text fill="#eeeeee" stroke="none" font-family="Arial" font-size="24px" font-style="normal" font-weight="normal" text-decoration="none" x="600" y="210">UNREGISTERED</text><text fill="#eeeeee" stroke="none" font-family="Arial" font-size="24px" font-style="normal" font-weight="normal" text-decoration="none" x="600" y="240">UNREGISTERED</text><text fill="#eeeeee" stroke="none" font-family="Arial" font-size="24px" font-style="normal" font-weight="normal" text-decoration="none" x="600" y="270">UNREGISTERED</text><text fill="#eeeeee" stroke="none" font-family="Arial" font-size="24px" font-style="normal" font-weight="normal" text-decoration="none" x="600" y="300">UNREGISTERED</text><text fill="#eeeeee" stroke="none" font-family="Arial" font-size="24px" font-style="normal" font-weight="normal" text-decoration="none" x="600" y="330">UNREGISTERED</text><text fill="#eeeeee" stroke="none" font-family="Arial" font-size="24px" font-style="normal" font-weight="normal" text-decoration="none" x="600" y="360">UNREGISTERED</text><text fill="#eeeeee" stroke="none" font-family="Arial" font-size="24px" font-style="normal" font-weight="normal" text-decoration="none" x="600" y="390">UNREGISTERED</text><text fill="#eeeeee" stroke="none" font-family="Arial" font-size="24px" font-style="normal" font-weight="normal" text-decoration="none" x="600" y="420">UNREGISTERED</text><text fill="#eeeeee" stroke="none" font-family="Arial" font-size="24px" font-style="normal" font-weight="normal" text-decoration="none" x="600" y="450">UNREGISTERED</text><text fill="#eeeeee" stroke="none" font-family="Arial" font-size="24px" font-style="normal" font-weight="normal" text-decoration="none" x="600" y="480">UNREGISTERED</text><text fill="#eeeeee" stroke="none" font-family="Arial" font-size="24px" font-style="normal" font-weight="normal" text-decoration="none" x="600" y="510">UNREGISTERED</text><text fill="#eeeeee" stroke="none" font-family="Arial" font-size="24px" font-style="normal" font-weight="normal" text-decoration="none" x="600" y="540">UNREGISTERED</text><text fill="#eeeeee" stroke="none" font-family="Arial" font-size="24px" font-style="normal" font-weight="normal" text-decoration="none" x="600" y="570">UNREGISTERED</text><g transform="translate(-174,-150) scale(1,1)"><rect fill="#C0C0C0" stroke="none" x="455" y="327" width="76.9072265625" height="32" opacity="0.2"/></g><g transform="translate(-174,-150) scale(1,1)"><rect fill="#ffffff" stroke="none" x="448" y="320" width="76.9072265625" height="32"/></g><g transform="translate(-174,-150) scale(1,1)"><path fill="none" stroke="#000000" d="M 448 320 L 524.9072265625 320 L 524.9072265625 352 L 448 352 L 448 320 Z Z" stroke-miterlimit="10"/></g><g transform="translate(-174,-150) scale(1,1)"><g><path fill="none" stroke="none"/><text fill="#000000" stroke="none" font-family="Arial" font-size="13px" font-style="normal" font-weight="bold" text-decoration="none" x="455.02001953125" y="337.5">Categories</text></g></g><g transform="translate(-174,-150) scale(1,1)"><rect fill="#C0C0C0" stroke="none" x="823" y="167" width="76.18994140625" height="32" opacity="0.2"/></g><g transform="translate(-174,-150) scale(1,1)"><rect fill="#ffffff" stroke="none" x="816" y="160" width="76.18994140625" height="32"/></g><g transform="translate(-174,-150) scale(1,1)"><path fill="none" stroke="#000000" d="M 816 160 L 892.18994140625 160 L 892.18994140625 192 L 816 192 L 816 160 Z Z" stroke-miterlimit="10"/></g><g transform="translate(-174,-150) scale(1,1)"><g><path fill="none" stroke="none"/><text fill="#000000" stroke="none" font-family="Arial" font-size="13px" font-style="normal" font-weight="bold" text-decoration="none" x="825.9208984375" y="177.5">Customer</text></g></g><g transform="translate(-174,-150) scale(1,1)"><rect fill="#C0C0C0" stroke="none" x="447" y="167" width="88.46630859375" height="32" opacity="0.2"/></g><g transform="translate(-174,-150) scale(1,1)"><rect fill="#ffffff" stroke="none" x="440" y="160" width="88.46630859375" height="32"/></g><g transform="translate(-174,-150) scale(1,1)"><path fill="none" stroke="#000000" d="M 440 160 L 528.46630859375 160 L 528.46630859375 192 L 440 192 L 440 160 Z Z" stroke-miterlimit="10"/></g><g transform="translate(-174,-150) scale(1,1)"><g><path fill="none" stroke="none"/><text fill="#000000" stroke="none" font-family="Arial" font-size="13px" font-style="normal" font-weight="bold" text-decoration="none" x="447.023193359375" y="177.5">Departments</text></g></g><g transform="translate(-174,-150) scale(1,1)"><rect fill="#C0C0C0" stroke="none" x="751" y="311" width="52.341796875" height="32" opacity="0.2"/></g><g transform="translate(-174,-150) scale(1,1)"><rect fill="#ffffff" stroke="none" x="744" y="304" width="52.341796875" height="32"/></g><g transform="translate(-174,-150) scale(1,1)"><path fill="none" stroke="#000000" d="M 744 304 L 796.341796875 304 L 796.341796875 336 L 744 336 L 744 304 Z Z" stroke-miterlimit="10"/></g><g transform="translate(-174,-150) scale(1,1)"><g><path fill="none" stroke="none"/><text fill="#000000" stroke="none" font-family="Arial" font-size="13px" font-style="normal" font-weight="bold" text-decoration="none" x="750.305908203125" y="321.5">Orders</text></g></g><g transform="translate(-174,-150) scale(1,1)"><rect fill="#C0C0C0" stroke="none" x="463" y="687" width="68.26171875" height="32" opacity="0.2"/></g><g transform="translate(-174,-150) scale(1,1)"><rect fill="#ffffff" stroke="none" x="456" y="680" width="68.26171875" height="32"/></g><g transform="translate(-174,-150) scale(1,1)"><path fill="none" stroke="#000000" d="M 456 680 L 524.26171875 680 L 524.26171875 712 L 456 712 L 456 680 Z Z" stroke-miterlimit="10"/></g><g transform="translate(-174,-150) scale(1,1)"><g><path fill="none" stroke="none"/><text fill="#000000" stroke="none" font-family="Arial" font-size="13px" font-style="normal" font-weight="bold" text-decoration="none" x="465.568603515625" y="697.5">Reviews</text></g></g><g transform="translate(-174,-150) scale(1,1)"><rect fill="#C0C0C0" stroke="none" x="463" y="503" width="65.341796875" height="32" opacity="0.2"/></g><g transform="translate(-174,-150) scale(1,1)"><rect fill="#ffffff" stroke="none" x="456" y="496" width="65.341796875" height="32"/></g><g transform="translate(-174,-150) scale(1,1)"><path fill="none" stroke="#000000" d="M 456 496 L 521.341796875 496 L 521.341796875 528 L 456 528 L 456 496 Z Z" stroke-miterlimit="10"/></g><g transform="translate(-174,-150) scale(1,1)"><g><path fill="none" stroke="none"/><text fill="#000000" stroke="none" font-family="Arial" font-size="13px" font-style="normal" font-weight="bold" text-decoration="none" x="463.02001953125" y="513.5">Products</text></g></g><g transform="translate(-174,-150) scale(1,1)"><rect fill="#C0C0C0" stroke="none" x="719" y="503" width="100.74267578125" height="32" opacity="0.2"/></g><g transform="translate(-174,-150) scale(1,1)"><rect fill="#ffffff" stroke="none" x="712" y="496" width="100.74267578125" height="32"/></g><g transform="translate(-174,-150) scale(1,1)"><path fill="none" stroke="#000000" d="M 712 496 L 812.74267578125 496 L 812.74267578125 528 L 712 528 L 712 496 Z Z" stroke-miterlimit="10"/></g><g transform="translate(-174,-150) scale(1,1)"><g><path fill="none" stroke="none"/><text fill="#000000" stroke="none" font-family="Arial" font-size="13px" font-style="normal" font-weight="bold" text-decoration="none" x="720.10546875" y="513.5">ProductOrders</text></g></g><g transform="translate(-174,-150) scale(1,1)"><rect fill="#C0C0C0" stroke="none" x="223" y="359" width="52.341796875" height="32" opacity="0.2"/></g><g transform="translate(-174,-150) scale(1,1)"><rect fill="#ffffff" stroke="none" x="216" y="352" width="52.341796875" height="32"/></g><g transform="translate(-174,-150) scale(1,1)"><path fill="none" stroke="#000000" d="M 216 352 L 268.341796875 352 L 268.341796875 384 L 216 384 L 216 352 Z Z" stroke-miterlimit="10"/></g><g transform="translate(-174,-150) scale(1,1)"><g><path fill="none" stroke="none"/><text fill="#000000" stroke="none" font-family="Arial" font-size="13px" font-style="normal" font-weight="bold" text-decoration="none" x="229.891357421875" y="369.5">Cart</text></g></g><g transform="translate(-174,-150) scale(1,1)"><rect fill="#C0C0C0" stroke="none" x="191" y="503" width="119.3857421875" height="32" opacity="0.2"/></g><g transform="translate(-174,-150) scale(1,1)"><rect fill="#ffffff" stroke="none" x="184" y="496" width="119.3857421875" height="32"/></g><g transform="translate(-174,-150) scale(1,1)"><path fill="none" stroke="#000000" d="M 184 496 L 303.3857421875 496 L 303.3857421875 528 L 184 528 L 184 496 Z Z" stroke-miterlimit="10"/></g><g transform="translate(-174,-150) scale(1,1)"><g><path fill="none" stroke="none"/><text fill="#000000" stroke="none" font-family="Arial" font-size="13px" font-style="normal" font-weight="bold" text-decoration="none" x="192.762451171875" y="513.5">CartWithProducts</text></g></g><g transform="translate(-174,-150) scale(1,1)"><path fill="none" stroke="#000000" d="M 488 192 L 488 320" stroke-miterlimit="10"/></g><g transform="translate(-174,-150) scale(1,1)"><path fill="none" stroke="#000000" d="M 488 306 L 481 320" stroke-miterlimit="10"/></g><g transform="translate(-174,-150) scale(1,1)"><path fill="none" stroke="#000000" d="M 488 306 L 495 320" stroke-miterlimit="10"/></g><g transform="translate(-174,-150) scale(1,1)"><path fill="#FFFFFF" stroke="none" d="M 481 298 C 481 294.1340064 484.1340064 291 488 291 C 491.8659936 291 495 294.1340064 495 298 C 495 301.8659936 491.8659936 305 488 305 C 484.1340064 305 481 301.8659936 481 298 Z"/></g><g transform="translate(-174,-150) scale(1,1)"><path fill="none" stroke="#000000" d="M 481 298 C 481 294.1340064 484.1340064 291 488 291 C 491.8659936 291 495 294.1340064 495 298 C 495 301.8659936 491.8659936 305 488 305 C 484.1340064 305 481 301.8659936 481 298 Z" stroke-miterlimit="10"/></g><g transform="translate(-174,-150) scale(1,1)"><path fill="none" stroke="#000000" d="M 495 199 L 481 199" stroke-miterlimit="10"/></g><g transform="translate(-174,-150) scale(1,1)"><path fill="none" stroke="#000000" d="M 495 206 L 481 206" stroke-miterlimit="10"/></g><g transform="translate(-174,-150) scale(1,1)"><g><path fill="none" stroke="none"/><text fill="#000000" stroke="none" font-family="Arial" font-size="13px" font-style="normal" font-weight="normal" text-decoration="none" x="499.5" y="261.5">hasMany</text></g></g><g transform="translate(-174,-150) scale(1,1)"><g><path fill="none" stroke="none"/><text fill="#000000" stroke="none" font-family="Arial" font-size="13px" font-style="normal" font-weight="normal" text-decoration="none" x="502.5" y="223.5"></text></g></g><g transform="translate(-174,-150) scale(1,1)"><g><path fill="none" stroke="none"/><text fill="#000000" stroke="none" font-family="Arial" font-size="13px" font-style="normal" font-weight="normal" text-decoration="none" x="502.5" y="300.5"></text></g></g><g transform="translate(-174,-150) scale(1,1)"><path fill="none" stroke="#000000" d="M 486 352 L 486 496" stroke-miterlimit="10"/></g><g transform="translate(-174,-150) scale(1,1)"><path fill="none" stroke="#000000" d="M 486 482 L 479 496" stroke-miterlimit="10"/></g><g transform="translate(-174,-150) scale(1,1)"><path fill="none" stroke="#000000" d="M 486 482 L 493 496" stroke-miterlimit="10"/></g><g transform="translate(-174,-150) scale(1,1)"><path fill="#FFFFFF" stroke="none" d="M 479 474 C 479 470.1340064 482.1340064 467 486 467 C 489.8659936 467 493 470.1340064 493 474 C 493 477.8659936 489.8659936 481 486 481 C 482.1340064 481 479 477.8659936 479 474 Z"/></g><g transform="translate(-174,-150) scale(1,1)"><path fill="none" stroke="#000000" d="M 479 474 C 479 470.1340064 482.1340064 467 486 467 C 489.8659936 467 493 470.1340064 493 474 C 493 477.8659936 489.8659936 481 486 481 C 482.1340064 481 479 477.8659936 479 474 Z" stroke-miterlimit="10"/></g><g transform="translate(-174,-150) scale(1,1)"><path fill="none" stroke="#000000" d="M 493 359 L 479 359" stroke-miterlimit="10"/></g><g transform="translate(-174,-150) scale(1,1)"><path fill="none" stroke="#000000" d="M 493 366 L 479 366" stroke-miterlimit="10"/></g><g transform="translate(-174,-150) scale(1,1)"><g><path fill="none" stroke="none"/><text fill="#000000" stroke="none" font-family="Arial" font-size="13px" font-style="normal" font-weight="normal" text-decoration="none" x="494.5" y="429.5">hasMany</text></g></g><g transform="translate(-174,-150) scale(1,1)"><g><path fill="none" stroke="none"/><text fill="#000000" stroke="none" font-family="Arial" font-size="13px" font-style="normal" font-weight="normal" text-decoration="none" x="500.5" y="383.5"></text></g></g><g transform="translate(-174,-150) scale(1,1)"><g><path fill="none" stroke="none"/><text fill="#000000" stroke="none" font-family="Arial" font-size="13px" font-style="normal" font-weight="normal" text-decoration="none" x="500.5" y="476.5"></text></g></g><g transform="translate(-174,-150) scale(1,1)"><path fill="none" stroke="#000000" d="M 816 176 L 776 176 M 776 176 A 8 8 0 0 0 768 184 L 768 304" stroke-miterlimit="10"/></g><g transform="translate(-174,-150) scale(1,1)"><path fill="none" stroke="#000000" d="M 768 290 L 761 304" stroke-miterlimit="10"/></g><g transform="translate(-174,-150) scale(1,1)"><path fill="none" stroke="#000000" d="M 768 290 L 775 304" stroke-miterlimit="10"/></g><g transform="translate(-174,-150) scale(1,1)"><path fill="#FFFFFF" stroke="none" d="M 761 282 C 761 278.1340064 764.1340064 275 768 275 C 771.8659936 275 775 278.1340064 775 282 C 775 285.8659936 771.8659936 289 768 289 C 764.1340064 289 761 285.8659936 761 282 Z"/></g><g transform="translate(-174,-150) scale(1,1)"><path fill="none" stroke="#000000" d="M 761 282 C 761 278.1340064 764.1340064 275 768 275 C 771.8659936 275 775 278.1340064 775 282 C 775 285.8659936 771.8659936 289 768 289 C 764.1340064 289 761 285.8659936 761 282 Z" stroke-miterlimit="10"/></g><g transform="translate(-174,-150) scale(1,1)"><path fill="none" stroke="#000000" d="M 809 183 L 809 169" stroke-miterlimit="10"/></g><g transform="translate(-174,-150) scale(1,1)"><path fill="none" stroke="#000000" d="M 802 183 L 802 169" stroke-miterlimit="10"/></g><g transform="translate(-174,-150) scale(1,1)"><g><path fill="none" stroke="none"/><text fill="#000000" stroke="none" font-family="Arial" font-size="13px" font-style="normal" font-weight="normal" text-decoration="none" x="712.5" y="252.5">hasMany</text></g></g><g transform="translate(-174,-150) scale(1,1)"><g><path fill="none" stroke="none"/><text fill="#000000" stroke="none" font-family="Arial" font-size="13px" font-style="normal" font-weight="normal" text-decoration="none" x="789.5" y="196.5"></text></g></g><g transform="translate(-174,-150) scale(1,1)"><g><path fill="none" stroke="none"/><text fill="#000000" stroke="none" font-family="Arial" font-size="13px" font-style="normal" font-weight="normal" text-decoration="none" x="782.5" y="284.5"></text></g></g><g transform="translate(-174,-150) scale(1,1)"><path fill="none" stroke="#000000" d="M 488 528 L 488 680" stroke-miterlimit="10"/></g><g transform="translate(-174,-150) scale(1,1)"><path fill="none" stroke="#000000" d="M 488 666 L 481 680" stroke-miterlimit="10"/></g><g transform="translate(-174,-150) scale(1,1)"><path fill="none" stroke="#000000" d="M 488 666 L 495 680" stroke-miterlimit="10"/></g><g transform="translate(-174,-150) scale(1,1)"><path fill="#FFFFFF" stroke="none" d="M 481 658 C 481 654.1340064 484.1340064 651 488 651 C 491.8659936 651 495 654.1340064 495 658 C 495 661.8659936 491.8659936 665 488 665 C 484.1340064 665 481 661.8659936 481 658 Z"/></g><g transform="translate(-174,-150) scale(1,1)"><path fill="none" stroke="#000000" d="M 481 658 C 481 654.1340064 484.1340064 651 488 651 C 491.8659936 651 495 654.1340064 495 658 C 495 661.8659936 491.8659936 665 488 665 C 484.1340064 665 481 661.8659936 481 658 Z" stroke-miterlimit="10"/></g><g transform="translate(-174,-150) scale(1,1)"><path fill="none" stroke="#000000" d="M 495 535 L 481 535" stroke-miterlimit="10"/></g><g transform="translate(-174,-150) scale(1,1)"><path fill="none" stroke="#000000" d="M 495 542 L 481 542" stroke-miterlimit="10"/></g><g transform="translate(-174,-150) scale(1,1)"><g><path fill="none" stroke="none"/><text fill="#000000" stroke="none" font-family="Arial" font-size="13px" font-style="normal" font-weight="normal" text-decoration="none" x="494.5" y="609.5">hasMany</text></g></g><g transform="translate(-174,-150) scale(1,1)"><g><path fill="none" stroke="none"/><text fill="#000000" stroke="none" font-family="Arial" font-size="13px" font-style="normal" font-weight="normal" text-decoration="none" x="502.5" y="559.5"></text></g></g><g transform="translate(-174,-150) scale(1,1)"><g><path fill="none" stroke="none"/><text fill="#000000" stroke="none" font-family="Arial" font-size="13px" font-style="normal" font-weight="normal" text-decoration="none" x="502.5" y="660.5"></text></g></g><g transform="translate(-174,-150) scale(1,1)"><path fill="none" stroke="#000000" d="M 856 192 L 856 688 M 856 688 A 8 8 0 0 1 848 696 L 524 696" stroke-miterlimit="10"/></g><g transform="translate(-174,-150) scale(1,1)"><path fill="none" stroke="#000000" d="M 538 696 L 524 689" stroke-miterlimit="10"/></g><g transform="translate(-174,-150) scale(1,1)"><path fill="none" stroke="#000000" d="M 538 696 L 524 703" stroke-miterlimit="10"/></g><g transform="translate(-174,-150) scale(1,1)"><path fill="#FFFFFF" stroke="none" d="M 539 696 C 539 692.1340064 542.1340064 689 546 689 C 549.8659936 689 553 692.1340064 553 696 C 553 699.8659936 549.8659936 703 546 703 C 542.1340064 703 539 699.8659936 539 696 Z"/></g><g transform="translate(-174,-150) scale(1,1)"><path fill="none" stroke="#000000" d="M 539 696 C 539 692.1340064 542.1340064 689 546 689 C 549.8659936 689 553 692.1340064 553 696 C 553 699.8659936 549.8659936 703 546 703 C 542.1340064 703 539 699.8659936 539 696 Z" stroke-miterlimit="10"/></g><g transform="translate(-174,-150) scale(1,1)"><path fill="none" stroke="#000000" d="M 863 199 L 849 199" stroke-miterlimit="10"/></g><g transform="translate(-174,-150) scale(1,1)"><path fill="none" stroke="#000000" d="M 863 206 L 849 206" stroke-miterlimit="10"/></g><g transform="translate(-174,-150) scale(1,1)"><g><path fill="none" stroke="none"/><text fill="#000000" stroke="none" font-family="Arial" font-size="13px" font-style="normal" font-weight="normal" text-decoration="none" x="763.5" y="717.5">hasMany</text></g></g><g transform="translate(-174,-150) scale(1,1)"><g><path fill="none" stroke="none"/><text fill="#000000" stroke="none" font-family="Arial" font-size="13px" font-style="normal" font-weight="normal" text-decoration="none" x="870.5" y="223.5"></text></g></g><g transform="translate(-174,-150) scale(1,1)"><g><path fill="none" stroke="none"/><text fill="#000000" stroke="none" font-family="Arial" font-size="13px" font-style="normal" font-weight="normal" text-decoration="none" x="548.5" y="716.5"></text></g></g><g transform="translate(-174,-150) scale(1,1)"><path fill="none" stroke="#000000" d="M 242 384 L 242 496" stroke-miterlimit="10"/></g><g transform="translate(-174,-150) scale(1,1)"><path fill="none" stroke="#000000" d="M 235 489 L 249 489" stroke-miterlimit="10"/></g><g transform="translate(-174,-150) scale(1,1)"><path fill="none" stroke="#000000" d="M 235 482 L 249 482" stroke-miterlimit="10"/></g><g transform="translate(-174,-150) scale(1,1)"><path fill="none" stroke="#000000" d="M 249 391 L 235 391" stroke-miterlimit="10"/></g><g transform="translate(-174,-150) scale(1,1)"><path fill="none" stroke="#000000" d="M 249 398 L 235 398" stroke-miterlimit="10"/></g><g transform="translate(-174,-150) scale(1,1)"><g><path fill="none" stroke="none"/><text fill="#000000" stroke="none" font-family="Arial" font-size="13px" font-style="normal" font-weight="normal" text-decoration="none" x="263.088623046875" y="445.5">through</text></g></g><g transform="translate(-174,-150) scale(1,1)"><g><path fill="none" stroke="none"/><text fill="#000000" stroke="none" font-family="Arial" font-size="13px" font-style="normal" font-weight="normal" text-decoration="none" x="256.5" y="415.5"></text></g></g><g transform="translate(-174,-150) scale(1,1)"><g><path fill="none" stroke="none"/><text fill="#000000" stroke="none" font-family="Arial" font-size="13px" font-style="normal" font-weight="normal" text-decoration="none" x="256.5" y="476.5"></text></g></g><g transform="translate(-174,-150) scale(1,1)"><path fill="none" stroke="#000000" d="M 303 512 L 456 512" stroke-miterlimit="10"/></g><g transform="translate(-174,-150) scale(1,1)"><path fill="none" stroke="#000000" d="M 442 512 L 456 519" stroke-miterlimit="10"/></g><g transform="translate(-174,-150) scale(1,1)"><path fill="none" stroke="#000000" d="M 442 512 L 456 505" stroke-miterlimit="10"/></g><g transform="translate(-174,-150) scale(1,1)"><path fill="#FFFFFF" stroke="none" d="M 427 512 C 427 508.1340064 430.1340064 505 434 505 C 437.8659936 505 441 508.1340064 441 512 C 441 515.8659936 437.8659936 519 434 519 C 430.1340064 519 427 515.8659936 427 512 Z"/></g><g transform="translate(-174,-150) scale(1,1)"><path fill="none" stroke="#000000" d="M 427 512 C 427 508.1340064 430.1340064 505 434 505 C 437.8659936 505 441 508.1340064 441 512 C 441 515.8659936 437.8659936 519 434 519 C 430.1340064 519 427 515.8659936 427 512 Z" stroke-miterlimit="10"/></g><g transform="translate(-174,-150) scale(1,1)"><path fill="none" stroke="#000000" d="M 317 512 L 303 505" stroke-miterlimit="10"/></g><g transform="translate(-174,-150) scale(1,1)"><path fill="none" stroke="#000000" d="M 317 512 L 303 519" stroke-miterlimit="10"/></g><g transform="translate(-174,-150) scale(1,1)"><path fill="none" stroke="#000000" d="M 317 505 L 317 519" stroke-miterlimit="10"/></g><g transform="translate(-174,-150) scale(1,1)"><g><path fill="none" stroke="none"/><text fill="#000000" stroke="none" font-family="Arial" font-size="13px" font-style="normal" font-weight="normal" text-decoration="none" x="356.8291015625" y="503.5">through</text></g></g><g transform="translate(-174,-150) scale(1,1)"><g><path fill="none" stroke="none"/><text fill="#000000" stroke="none" font-family="Arial" font-size="13px" font-style="normal" font-weight="normal" text-decoration="none" x="327.5" y="503.5"></text></g></g><g transform="translate(-174,-150) scale(1,1)"><g><path fill="none" stroke="none"/><text fill="#000000" stroke="none" font-family="Arial" font-size="13px" font-style="normal" font-weight="normal" text-decoration="none" x="429.5" y="503.5"></text></g></g><g transform="translate(-174,-150) scale(1,1)"><path fill="none" stroke="#000000" d="M 769 336 L 769 496" stroke-miterlimit="10"/></g><g transform="translate(-174,-150) scale(1,1)"><path fill="none" stroke="#000000" d="M 762 489 L 776 489" stroke-miterlimit="10"/></g><g transform="translate(-174,-150) scale(1,1)"><path fill="none" stroke="#000000" d="M 762 482 L 776 482" stroke-miterlimit="10"/></g><g transform="translate(-174,-150) scale(1,1)"><path fill="none" stroke="#000000" d="M 776 343 L 762 343" stroke-miterlimit="10"/></g><g transform="translate(-174,-150) scale(1,1)"><path fill="none" stroke="#000000" d="M 776 350 L 762 350" stroke-miterlimit="10"/></g><g transform="translate(-174,-150) scale(1,1)"><g><path fill="none" stroke="none"/><text fill="#000000" stroke="none" font-family="Arial" font-size="13px" font-style="normal" font-weight="normal" text-decoration="none" x="703.088623046875" y="420.5">through</text></g></g><g transform="translate(-174,-150) scale(1,1)"><g><path fill="none" stroke="none"/><text fill="#000000" stroke="none" font-family="Arial" font-size="13px" font-style="normal" font-weight="normal" text-decoration="none" x="783.5" y="367.5"></text></g></g><g transform="translate(-174,-150) scale(1,1)"><g><path fill="none" stroke="none"/><text fill="#000000" stroke="none" font-family="Arial" font-size="13px" font-style="normal" font-weight="normal" text-decoration="none" x="783.5" y="476.5"></text></g></g><g transform="translate(-174,-150) scale(1,1)"><path fill="none" stroke="#000000" d="M 712 512 L 521 512" stroke-miterlimit="10"/></g><g transform="translate(-174,-150) scale(1,1)"><path fill="none" stroke="#000000" d="M 535 512 L 521 505" stroke-miterlimit="10"/></g><g transform="translate(-174,-150) scale(1,1)"><path fill="none" stroke="#000000" d="M 535 512 L 521 519" stroke-miterlimit="10"/></g><g transform="translate(-174,-150) scale(1,1)"><path fill="#FFFFFF" stroke="none" d="M 536 512 C 536 508.1340064 539.1340064 505 543 505 C 546.8659936 505 550 508.1340064 550 512 C 550 515.8659936 546.8659936 519 543 519 C 539.1340064 519 536 515.8659936 536 512 Z"/></g><g transform="translate(-174,-150) scale(1,1)"><path fill="none" stroke="#000000" d="M 536 512 C 536 508.1340064 539.1340064 505 543 505 C 546.8659936 505 550 508.1340064 550 512 C 550 515.8659936 546.8659936 519 543 519 C 539.1340064 519 536 515.8659936 536 512 Z" stroke-miterlimit="10"/></g><g transform="translate(-174,-150) scale(1,1)"><path fill="none" stroke="#000000" d="M 698 512 L 712 519" stroke-miterlimit="10"/></g><g transform="translate(-174,-150) scale(1,1)"><path fill="none" stroke="#000000" d="M 698 512 L 712 505" stroke-miterlimit="10"/></g><g transform="translate(-174,-150) scale(1,1)"><path fill="none" stroke="#000000" d="M 698 519 L 698 505" stroke-miterlimit="10"/></g><g transform="translate(-174,-150) scale(1,1)"><g><path fill="none" stroke="none"/><text fill="#000000" stroke="none" font-family="Arial" font-size="13px" font-style="normal" font-weight="normal" text-decoration="none" x="592.8291015625" y="533.5">through</text></g></g><g transform="translate(-174,-150) scale(1,1)"><g><path fill="none" stroke="none"/><text fill="#000000" stroke="none" font-family="Arial" font-size="13px" font-style="normal" font-weight="normal" text-decoration="none" x="685.5" y="532.5"></text></g></g><g transform="translate(-174,-150) scale(1,1)"><g><path fill="none" stroke="none"/><text fill="#000000" stroke="none" font-family="Arial" font-size="13px" font-style="normal" font-weight="normal" text-decoration="none" x="545.5" y="532.5"></text></g></g></g></svg>